<svg width="160" height="160" viewBox="0 0 160 160" xmlns="http://www.w3.org/2000/svg">
  <rect width="160" height="160" fill="white"/>
  <rect x="10" y="10" width="40" height="40" fill="#333"/>
  <rect x="14" y="14" width="32" height="32" fill="white"/>
  <rect x="18" y="18" width="24" height="24" fill="#333"/>
  
  <rect x="110" y="10" width="40" height="40" fill="#333"/>
  <rect x="114" y="14" width="32" height="32" fill="white"/>
  <rect x="118" y="118" width="24" height="24" fill="#333"/>
  
  <rect x="10" y="110" width="40" height="40" fill="#333"/>
  <rect x="14" y="114" width="32" height="32" fill="white"/>
  <rect x="18" y="118" width="24" height="24" fill="#333"/>
  
  <rect x="60" y="10" width="5" height="5" fill="#333"/>
  <rect x="70" y="10" width="5" height="5" fill="#333"/>
  <rect x="80" y="10" width="5" height="5" fill="#333"/>
  <rect x="60" y="20" width="5" height="5" fill="#333"/>
  <rect x="70" y="25" width="5" height="5" fill="#333"/>
  <rect x="85" y="20" width="5" height="5" fill="#333"/>
  <rect x="60" y="30" width="5" height="5" fill="#333"/>
  <rect x="75" y="30" width="5" height="5" fill="#333"/>
  
  <rect x="10" y="60" width="5" height="5" fill="#333"/>
  <rect x="20" y="60" width="5" height="5" fill="#333"/>
  <rect x="30" y="65" width="5" height="5" fill="#333"/>
  <rect x="10" y="70" width="5" height="5" fill="#333"/>
  <rect x="25" y="75" width="5" height="5" fill="#333"/>
  
  <rect x="60" y="60" width="5" height="5" fill="#333"/>
  <rect x="70" y="55" width="5" height="5" fill="#333"/>
  <rect x="80" y="65" width="5" height="5" fill="#333"/>
  <rect x="90" y="60" width="5" height="5" fill="#333"/>
  <rect x="60" y="75" width="5" height="5" fill="#333"/>
  <rect x="75" y="80" width="5" height="5" fill="#333"/>
  <rect x="85" y="70" width="5" height="5" fill="#333"/>
  
  <rect x="110" y="60" width="5" height="5" fill="#333"/>
  <rect x="120" y="65" width="5" height="5" fill="#333"/>
  <rect x="135" y="60" width="5" height="5" fill="#333"/>
  <rect x="110" y="75" width="5" height="5" fill="#333"/>
  <rect x="125" y="80" width="5" height="5" fill="#333"/>
  <rect x="140" y="70" width="5" height="5" fill="#333"/>
  
  <rect x="60" y="110" width="5" height="5" fill="#333"/>
  <rect x="70" y="115" width="5" height="5" fill="#333"/>
  <rect x="80" y="110" width="5" height="5" fill="#333"/>
  <rect x="90" y="120" width="5" height="5" fill="#333"/>
  <rect x="60" y="125" width="5" height="5" fill="#333"/>
  <rect x="75" y="130" width="5" height="5" fill="#333"/>
  <rect x="85" y="125" width="5" height="5" fill="#333"/>
  
  <rect x="110" y="110" width="5" height="5" fill="#333"/>
  <rect x="125" y="110" width="5" height="5" fill="#333"/>
  <rect x="140" y="115" width="5" height="5" fill="#333"/>
  <rect x="110" y="125" width="5" height="5" fill="#333"/>
  <rect x="130" y="130" width="5" height="5" fill="#333"/>
  <rect x="145" y="125" width="5" height="5" fill="#333"/>
  <rect x="115" y="140" width="5" height="5" fill="#333"/>
  <rect x="125" y="145" width="5" height="5" fill="#333"/>
  <rect x="140" y="140" width="5" height="5" fill="#333"/>
  
  <text x="80" y="158" text-anchor="middle" font-size="10" fill="#666">微信公众号</text>
</svg>
